<svg xmlns="http://www.w3.org/2000/svg" xmlns:xlink="http://www.w3.org/1999/xlink" width="37" height="57">
<g transform="translate(3.5,3.5)" stroke-width="1" stroke-linejoin="round" stroke-linecap="round">
<path fill="#4e4e4e" d="M 0,40 20,40 30,50 10,50 z"/>
<path fill="#4e4e4e" d="M 20,40 20,0 30,10 30,50 z"/>
<path fill="#6c6c6c" d="M 0,0 0,40 20,40 20,0 0,0 z"/>
<path fill="none" stroke="#000" d="
M 0,0 0,40 20,40 20,0 0,0 z
M 10,50 30,50 M 30,50 30,10
M 0,40 10,50
M 20,40 30,50
M 20,0 30,10
"/>
</g>
</svg>
