<svg xmlns="http://www.w3.org/2000/svg" xmlns:xlink="http://www.w3.org/1999/xlink" width="57" height="37">
<g transform="translate(3.5,3.5)" stroke-width="1" stroke-linejoin="round" stroke-linecap="round">
<path fill="#4e4e4e" d="M 0,20 40,20 50,30 10,30 z"/>
<path fill="#4e4e4e" d="M 40,20 40,0 50,10 50,30 z"/>
<path fill="#6c6c6c" d="M 0,0 0,20 40,20 40,0 0,0 z"/>
<path fill="none" stroke="#000" d="
M 0,0 0,20 40,20 40,0 0,0 z
M 10,30 50,30 M 50,30 50,10
M 0,20 10,30
M 40,20 50,30
M 40,0 50,10
"/>
</g>
</svg>
